<svg width="29" height="15" viewBox="0 0 29 15" fill="none" xmlns="http://www.w3.org/2000/svg">
<path d="M28.0117 7.01594L21.8803 0.387673C21.6 0.0754057 21.1715 -0.0636325 20.7589 0.0275403C20.3486 0.118713 20.0181 0.424142 19.8951 0.827582C19.772 1.23102 19.8745 1.66865 20.1663 1.97408L23.7517 5.84893L1.18411 5.84893C0.762434 5.84209 0.372669 6.06318 0.160692 6.42787C-0.0535644 6.79028 -0.0535644 7.24159 0.160692 7.604C0.372669 7.96869 0.762434 8.18979 1.18411 8.18295L23.7517 8.18295L20.1663 12.0578C19.8745 12.3632 19.772 12.8009 19.8951 13.2043C20.0181 13.6077 20.3486 13.9132 20.7589 14.0043C21.1715 14.0955 21.6 13.9565 21.8803 13.6442L28.0117 7.01594Z" fill="white"/>
</svg>
