<svg width="19" height="19" viewBox="0 0 19 19" fill="none" xmlns="http://www.w3.org/2000/svg">
<path d="M9.86192 18.6662C14.8323 18.6662 18.8621 14.6364 18.8621 9.66602C18.8621 4.69564 14.8323 0.665877 9.86192 0.665877C4.89154 0.665878 0.861784 4.69564 0.861783 9.66602C0.861784 14.6364 4.89154 18.6662 9.86192 18.6662ZM6.5704 8.76613L11.5077 8.76613L9.86192 7.12037C9.51062 6.76907 9.51062 6.19884 9.86192 5.84754C10.2132 5.49624 10.7834 5.49624 11.1347 5.84754L14.3168 9.0296C14.6681 9.3809 14.6681 9.95113 14.3168 10.3024L11.1347 13.4845C10.7834 13.8358 10.2132 13.8358 9.86192 13.4845C9.51062 13.1332 9.51062 12.563 9.86192 12.2117L11.5077 10.5659L6.5704 10.5659C6.074 10.5659 5.67051 10.1624 5.67051 9.66602C5.67115 9.16898 6.074 8.76613 6.5704 8.76613Z" fill="#35B233"/>
</svg>
