<svg width="24" height="23" viewBox="0 0 24 23" fill="none" xmlns="http://www.w3.org/2000/svg">
<path d="M17.4 0C13.926 0 12 2.508 12 2.508C12 2.508 10.074 0 6.6 0C2.9544 0 0 2.9544 0 6.6C0 11.6052 5.8944 16.4556 7.5372 17.988C9.4296 19.752 12 22.02 12 22.02C12 22.02 14.5704 19.752 16.4628 17.988C18.1056 16.4556 24 11.6052 24 6.6C24 2.9544 21.0456 0 17.4 0ZM15.3732 15.732C15.1608 15.924 14.976 16.0908 14.826 16.2312C13.9248 17.0712 12.8592 18.0348 12 18.8052C11.1408 18.0348 10.074 17.07 9.174 16.2312C9.0228 16.0908 8.838 15.9228 8.6268 15.732C6.9228 14.1924 2.4 10.1028 2.4 6.6C2.4 4.284 4.284 2.4 6.6 2.4C8.7924 2.4 10.0632 3.93 10.0968 3.9696L12 6L13.9032 3.9696C13.9152 3.954 15.2076 2.4 17.4 2.4C19.716 2.4 21.6 4.284 21.6 6.6C21.6 10.1028 17.0772 14.1924 15.3732 15.732Z" fill="#BB2525"/>
</svg>
